<?xml version="1.0" encoding="utf-8" standalone="no"?>
<!DOCTYPE svg PUBLIC "-//W3C//DTD SVG 1.1//EN"
  "http://www.w3.org/Graphics/SVG/1.1/DTD/svg11.dtd">
<svg xmlns:xlink="http://www.w3.org/1999/xlink" width="692.39952pt" height="434.950312pt" viewBox="0 0 692.39952 434.950312" xmlns="http://www.w3.org/2000/svg" version="1.1">
 <metadata>
  <rdf:RDF xmlns:dc="http://purl.org/dc/elements/1.1/" xmlns:cc="http://creativecommons.org/ns#" xmlns:rdf="http://www.w3.org/1999/02/22-rdf-syntax-ns#">
   <cc:Work>
    <dc:type rdf:resource="http://purl.org/dc/dcmitype/StillImage"/>
    <dc:date>2026-04-22T13:42:32.116781</dc:date>
    <dc:format>image/svg+xml</dc:format>
    <dc:creator>
     <cc:Agent>
      <dc:title>Matplotlib v3.10.7, https://matplotlib.org/</dc:title>
     </cc:Agent>
    </dc:creator>
   </cc:Work>
  </rdf:RDF>
 </metadata>
 <defs>
  <style type="text/css">*{stroke-linejoin: round; stroke-linecap: butt}</style>
 </defs>
 <g id="figure_1">
  <g id="patch_1">
   <path d="M 0 434.950312 
L 692.39952 434.950312 
L 692.39952 0 
L 0 0 
z
" style="fill: #ffffff"/>
  </g>
  <g id="axes_1">
   <g id="patch_2">
    <path d="M 53.328125 380.243823 
L 685.19952 380.243823 
L 685.19952 18.12024 
L 53.328125 18.12024 
z
" style="fill: #ffffff"/>
   </g>
   <g id="patch_3">
    <path d="M 88.567107 380.243823 
L 163.905619 380.243823 
L 163.905619 53.702818 
L 88.567107 53.702818 
z
" clip-path="url(#pfc7b1c744d)" style="fill: #2b2b2b"/>
   </g>
   <g id="patch_4">
    <path d="M 210.080836 94.008747 
L 285.419349 94.008747 
L 285.419349 53.702818 
L 210.080836 53.702818 
z
" clip-path="url(#pfc7b1c744d)" style="fill: #6c6c6c"/>
   </g>
   <g id="patch_5">
    <path d="M 331.594566 186.271538 
L 406.933079 186.271538 
L 406.933079 94.008747 
L 331.594566 94.008747 
z
" clip-path="url(#pfc7b1c744d)" style="fill: #6c6c6c"/>
   </g>
   <g id="patch_6">
    <path d="M 453.108296 186.271538 
L 528.446809 186.271538 
L 528.446809 174.935496 
L 453.108296 174.935496 
z
" clip-path="url(#pfc7b1c744d)" style="fill: #b0b0b0"/>
   </g>
   <g id="patch_7">
    <path d="M 574.622026 380.243823 
L 649.960538 380.243823 
L 649.960538 174.935496 
L 574.622026 174.935496 
z
" clip-path="url(#pfc7b1c744d)" style="fill: #2b2b2b"/>
   </g>
   <g id="matplotlib.axis_1">
    <g id="xtick_1">
     <g id="line2d_1">
      <defs>
       <path id="m344ba27b6f" d="M 0 0 
L 0 3.5 
" style="stroke: #333333; stroke-width: 0.8"/>
      </defs>
      <g>
       <use xlink:href="#m344ba27b6f" x="126.236363" y="380.243823" style="fill: #333333; stroke: #333333; stroke-width: 0.8"/>
      </g>
     </g>
     <g id="text_1">
      <!-- 2019 -->
      <g style="fill: #333333" transform="translate(113.511363 394.84226) scale(0.1 -0.1)">
       <defs>
        <path id="DejaVuSans-32" d="M 1228 531 
L 3431 531 
L 3431 0 
L 469 0 
L 469 531 
Q 828 903 1448 1529 
Q 2069 2156 2228 2338 
Q 2531 2678 2651 2914 
Q 2772 3150 2772 3378 
Q 2772 3750 2511 3984 
Q 2250 4219 1831 4219 
Q 1534 4219 1204 4116 
Q 875 4013 500 3803 
L 500 4441 
Q 881 4594 1212 4672 
Q 1544 4750 1819 4750 
Q 2544 4750 2975 4387 
Q 3406 4025 3406 3419 
Q 3406 3131 3298 2873 
Q 3191 2616 2906 2266 
Q 2828 2175 2409 1742 
Q 1991 1309 1228 531 
z
" transform="scale(0.015625)"/>
        <path id="DejaVuSans-30" d="M 2034 4250 
Q 1547 4250 1301 3770 
Q 1056 3291 1056 2328 
Q 1056 1369 1301 889 
Q 1547 409 2034 409 
Q 2525 409 2770 889 
Q 3016 1369 3016 2328 
Q 3016 3291 2770 3770 
Q 2525 4250 2034 4250 
z
M 2034 4750 
Q 2819 4750 3233 4129 
Q 3647 3509 3647 2328 
Q 3647 1150 3233 529 
Q 2819 -91 2034 -91 
Q 1250 -91 836 529 
Q 422 1150 422 2328 
Q 422 3509 836 4129 
Q 1250 4750 2034 4750 
z
" transform="scale(0.015625)"/>
        <path id="DejaVuSans-31" d="M 794 531 
L 1825 531 
L 1825 4091 
L 703 3866 
L 703 4441 
L 1819 4666 
L 2450 4666 
L 2450 531 
L 3481 531 
L 3481 0 
L 794 0 
L 794 531 
z
" transform="scale(0.015625)"/>
        <path id="DejaVuSans-39" d="M 703 97 
L 703 672 
Q 941 559 1184 500 
Q 1428 441 1663 441 
Q 2288 441 2617 861 
Q 2947 1281 2994 2138 
Q 2813 1869 2534 1725 
Q 2256 1581 1919 1581 
Q 1219 1581 811 2004 
Q 403 2428 403 3163 
Q 403 3881 828 4315 
Q 1253 4750 1959 4750 
Q 2769 4750 3195 4129 
Q 3622 3509 3622 2328 
Q 3622 1225 3098 567 
Q 2575 -91 1691 -91 
Q 1453 -91 1209 -44 
Q 966 3 703 97 
z
M 1959 2075 
Q 2384 2075 2632 2365 
Q 2881 2656 2881 3163 
Q 2881 3666 2632 3958 
Q 2384 4250 1959 4250 
Q 1534 4250 1286 3958 
Q 1038 3666 1038 3163 
Q 1038 2656 1286 2365 
Q 1534 2075 1959 2075 
z
" transform="scale(0.015625)"/>
       </defs>
       <use xlink:href="#DejaVuSans-32"/>
       <use xlink:href="#DejaVuSans-30" transform="translate(63.623047 0)"/>
       <use xlink:href="#DejaVuSans-31" transform="translate(127.246094 0)"/>
       <use xlink:href="#DejaVuSans-39" transform="translate(190.869141 0)"/>
      </g>
      <!-- forecast -->
      <g style="fill: #333333" transform="translate(106.019175 406.040073) scale(0.1 -0.1)">
       <defs>
        <path id="DejaVuSans-66" d="M 2375 4863 
L 2375 4384 
L 1825 4384 
Q 1516 4384 1395 4259 
Q 1275 4134 1275 3809 
L 1275 3500 
L 2222 3500 
L 2222 3053 
L 1275 3053 
L 1275 0 
L 697 0 
L 697 3053 
L 147 3053 
L 147 3500 
L 697 3500 
L 697 3744 
Q 697 4328 969 4595 
Q 1241 4863 1831 4863 
L 2375 4863 
z
" transform="scale(0.015625)"/>
        <path id="DejaVuSans-6f" d="M 1959 3097 
Q 1497 3097 1228 2736 
Q 959 2375 959 1747 
Q 959 1119 1226 758 
Q 1494 397 1959 397 
Q 2419 397 2687 759 
Q 2956 1122 2956 1747 
Q 2956 2369 2687 2733 
Q 2419 3097 1959 3097 
z
M 1959 3584 
Q 2709 3584 3137 3096 
Q 3566 2609 3566 1747 
Q 3566 888 3137 398 
Q 2709 -91 1959 -91 
Q 1206 -91 779 398 
Q 353 888 353 1747 
Q 353 2609 779 3096 
Q 1206 3584 1959 3584 
z
" transform="scale(0.015625)"/>
        <path id="DejaVuSans-72" d="M 2631 2963 
Q 2534 3019 2420 3045 
Q 2306 3072 2169 3072 
Q 1681 3072 1420 2755 
Q 1159 2438 1159 1844 
L 1159 0 
L 581 0 
L 581 3500 
L 1159 3500 
L 1159 2956 
Q 1341 3275 1631 3429 
Q 1922 3584 2338 3584 
Q 2397 3584 2469 3576 
Q 2541 3569 2628 3553 
L 2631 2963 
z
" transform="scale(0.015625)"/>
        <path id="DejaVuSans-65" d="M 3597 1894 
L 3597 1613 
L 953 1613 
Q 991 1019 1311 708 
Q 1631 397 2203 397 
Q 2534 397 2845 478 
Q 3156 559 3463 722 
L 3463 178 
Q 3153 47 2828 -22 
Q 2503 -91 2169 -91 
Q 1331 -91 842 396 
Q 353 884 353 1716 
Q 353 2575 817 3079 
Q 1281 3584 2069 3584 
Q 2775 3584 3186 3129 
Q 3597 2675 3597 1894 
z
M 3022 2063 
Q 3016 2534 2758 2815 
Q 2500 3097 2075 3097 
Q 1594 3097 1305 2825 
Q 1016 2553 972 2059 
L 3022 2063 
z
" transform="scale(0.015625)"/>
        <path id="DejaVuSans-63" d="M 3122 3366 
L 3122 2828 
Q 2878 2963 2633 3030 
Q 2388 3097 2138 3097 
Q 1578 3097 1268 2742 
Q 959 2388 959 1747 
Q 959 1106 1268 751 
Q 1578 397 2138 397 
Q 2388 397 2633 464 
Q 2878 531 3122 666 
L 3122 134 
Q 2881 22 2623 -34 
Q 2366 -91 2075 -91 
Q 1284 -91 818 406 
Q 353 903 353 1747 
Q 353 2603 823 3093 
Q 1294 3584 2113 3584 
Q 2378 3584 2631 3529 
Q 2884 3475 3122 3366 
z
" transform="scale(0.015625)"/>
        <path id="DejaVuSans-61" d="M 2194 1759 
Q 1497 1759 1228 1600 
Q 959 1441 959 1056 
Q 959 750 1161 570 
Q 1363 391 1709 391 
Q 2188 391 2477 730 
Q 2766 1069 2766 1631 
L 2766 1759 
L 2194 1759 
z
M 3341 1997 
L 3341 0 
L 2766 0 
L 2766 531 
Q 2569 213 2275 61 
Q 1981 -91 1556 -91 
Q 1019 -91 701 211 
Q 384 513 384 1019 
Q 384 1609 779 1909 
Q 1175 2209 1959 2209 
L 2766 2209 
L 2766 2266 
Q 2766 2663 2505 2880 
Q 2244 3097 1772 3097 
Q 1472 3097 1187 3025 
Q 903 2953 641 2809 
L 641 3341 
Q 956 3463 1253 3523 
Q 1550 3584 1831 3584 
Q 2591 3584 2966 3190 
Q 3341 2797 3341 1997 
z
" transform="scale(0.015625)"/>
        <path id="DejaVuSans-73" d="M 2834 3397 
L 2834 2853 
Q 2591 2978 2328 3040 
Q 2066 3103 1784 3103 
Q 1356 3103 1142 2972 
Q 928 2841 928 2578 
Q 928 2378 1081 2264 
Q 1234 2150 1697 2047 
L 1894 2003 
Q 2506 1872 2764 1633 
Q 3022 1394 3022 966 
Q 3022 478 2636 193 
Q 2250 -91 1575 -91 
Q 1294 -91 989 -36 
Q 684 19 347 128 
L 347 722 
Q 666 556 975 473 
Q 1284 391 1588 391 
Q 1994 391 2212 530 
Q 2431 669 2431 922 
Q 2431 1156 2273 1281 
Q 2116 1406 1581 1522 
L 1381 1569 
Q 847 1681 609 1914 
Q 372 2147 372 2553 
Q 372 3047 722 3315 
Q 1072 3584 1716 3584 
Q 2034 3584 2315 3537 
Q 2597 3491 2834 3397 
z
" transform="scale(0.015625)"/>
        <path id="DejaVuSans-74" d="M 1172 4494 
L 1172 3500 
L 2356 3500 
L 2356 3053 
L 1172 3053 
L 1172 1153 
Q 1172 725 1289 603 
Q 1406 481 1766 481 
L 2356 481 
L 2356 0 
L 1766 0 
Q 1100 0 847 248 
Q 594 497 594 1153 
L 594 3053 
L 172 3053 
L 172 3500 
L 594 3500 
L 594 4494 
L 1172 4494 
z
" transform="scale(0.015625)"/>
       </defs>
       <use xlink:href="#DejaVuSans-66"/>
       <use xlink:href="#DejaVuSans-6f" transform="translate(35.205078 0)"/>
       <use xlink:href="#DejaVuSans-72" transform="translate(96.386719 0)"/>
       <use xlink:href="#DejaVuSans-65" transform="translate(135.25 0)"/>
       <use xlink:href="#DejaVuSans-63" transform="translate(196.773438 0)"/>
       <use xlink:href="#DejaVuSans-61" transform="translate(251.753906 0)"/>
       <use xlink:href="#DejaVuSans-73" transform="translate(313.033203 0)"/>
       <use xlink:href="#DejaVuSans-74" transform="translate(365.132812 0)"/>
      </g>
     </g>
    </g>
    <g id="xtick_2">
     <g id="line2d_2">
      <g>
       <use xlink:href="#m344ba27b6f" x="247.750093" y="380.243823" style="fill: #333333; stroke: #333333; stroke-width: 0.8"/>
      </g>
     </g>
     <g id="text_2">
      <!-- Demand -->
      <g style="fill: #333333" transform="translate(226.546186 394.84226) scale(0.1 -0.1)">
       <defs>
        <path id="DejaVuSans-44" d="M 1259 4147 
L 1259 519 
L 2022 519 
Q 2988 519 3436 956 
Q 3884 1394 3884 2338 
Q 3884 3275 3436 3711 
Q 2988 4147 2022 4147 
L 1259 4147 
z
M 628 4666 
L 1925 4666 
Q 3281 4666 3915 4102 
Q 4550 3538 4550 2338 
Q 4550 1131 3912 565 
Q 3275 0 1925 0 
L 628 0 
L 628 4666 
z
" transform="scale(0.015625)"/>
        <path id="DejaVuSans-6d" d="M 3328 2828 
Q 3544 3216 3844 3400 
Q 4144 3584 4550 3584 
Q 5097 3584 5394 3201 
Q 5691 2819 5691 2113 
L 5691 0 
L 5113 0 
L 5113 2094 
Q 5113 2597 4934 2840 
Q 4756 3084 4391 3084 
Q 3944 3084 3684 2787 
Q 3425 2491 3425 1978 
L 3425 0 
L 2847 0 
L 2847 2094 
Q 2847 2600 2669 2842 
Q 2491 3084 2119 3084 
Q 1678 3084 1418 2786 
Q 1159 2488 1159 1978 
L 1159 0 
L 581 0 
L 581 3500 
L 1159 3500 
L 1159 2956 
Q 1356 3278 1631 3431 
Q 1906 3584 2284 3584 
Q 2666 3584 2933 3390 
Q 3200 3197 3328 2828 
z
" transform="scale(0.015625)"/>
        <path id="DejaVuSans-6e" d="M 3513 2113 
L 3513 0 
L 2938 0 
L 2938 2094 
Q 2938 2591 2744 2837 
Q 2550 3084 2163 3084 
Q 1697 3084 1428 2787 
Q 1159 2491 1159 1978 
L 1159 0 
L 581 0 
L 581 3500 
L 1159 3500 
L 1159 2956 
Q 1366 3272 1645 3428 
Q 1925 3584 2291 3584 
Q 2894 3584 3203 3211 
Q 3513 2838 3513 2113 
z
" transform="scale(0.015625)"/>
        <path id="DejaVuSans-64" d="M 2906 2969 
L 2906 4863 
L 3481 4863 
L 3481 0 
L 2906 0 
L 2906 525 
Q 2725 213 2448 61 
Q 2172 -91 1784 -91 
Q 1150 -91 751 415 
Q 353 922 353 1747 
Q 353 2572 751 3078 
Q 1150 3584 1784 3584 
Q 2172 3584 2448 3432 
Q 2725 3281 2906 2969 
z
M 947 1747 
Q 947 1113 1208 752 
Q 1469 391 1925 391 
Q 2381 391 2643 752 
Q 2906 1113 2906 1747 
Q 2906 2381 2643 2742 
Q 2381 3103 1925 3103 
Q 1469 3103 1208 2742 
Q 947 2381 947 1747 
z
" transform="scale(0.015625)"/>
       </defs>
       <use xlink:href="#DejaVuSans-44"/>
       <use xlink:href="#DejaVuSans-65" transform="translate(77.001953 0)"/>
       <use xlink:href="#DejaVuSans-6d" transform="translate(138.525391 0)"/>
       <use xlink:href="#DejaVuSans-61" transform="translate(235.9375 0)"/>
       <use xlink:href="#DejaVuSans-6e" transform="translate(297.216797 0)"/>
       <use xlink:href="#DejaVuSans-64" transform="translate(360.595703 0)"/>
      </g>
      <!-- effect -->
      <g style="fill: #333333" transform="translate(233.36728 406.040073) scale(0.1 -0.1)">
       <use xlink:href="#DejaVuSans-65"/>
       <use xlink:href="#DejaVuSans-66" transform="translate(61.523438 0)"/>
       <use xlink:href="#DejaVuSans-66" transform="translate(96.728516 0)"/>
       <use xlink:href="#DejaVuSans-65" transform="translate(131.933594 0)"/>
       <use xlink:href="#DejaVuSans-63" transform="translate(193.457031 0)"/>
       <use xlink:href="#DejaVuSans-74" transform="translate(248.4375 0)"/>
      </g>
     </g>
    </g>
    <g id="xtick_3">
     <g id="line2d_3">
      <g>
       <use xlink:href="#m344ba27b6f" x="369.263823" y="380.243823" style="fill: #333333; stroke: #333333; stroke-width: 0.8"/>
      </g>
     </g>
     <g id="text_3">
      <!-- Yield -->
      <g style="fill: #333333" transform="translate(357.36226 394.84226) scale(0.1 -0.1)">
       <defs>
        <path id="DejaVuSans-59" d="M -13 4666 
L 666 4666 
L 1959 2747 
L 3244 4666 
L 3922 4666 
L 2272 2222 
L 2272 0 
L 1638 0 
L 1638 2222 
L -13 4666 
z
" transform="scale(0.015625)"/>
        <path id="DejaVuSans-69" d="M 603 3500 
L 1178 3500 
L 1178 0 
L 603 0 
L 603 3500 
z
M 603 4863 
L 1178 4863 
L 1178 4134 
L 603 4134 
L 603 4863 
z
" transform="scale(0.015625)"/>
        <path id="DejaVuSans-6c" d="M 603 4863 
L 1178 4863 
L 1178 0 
L 603 0 
L 603 4863 
z
" transform="scale(0.015625)"/>
       </defs>
       <use xlink:href="#DejaVuSans-59"/>
       <use xlink:href="#DejaVuSans-69" transform="translate(57.458984 0)"/>
       <use xlink:href="#DejaVuSans-65" transform="translate(85.242188 0)"/>
       <use xlink:href="#DejaVuSans-6c" transform="translate(146.765625 0)"/>
       <use xlink:href="#DejaVuSans-64" transform="translate(174.548828 0)"/>
      </g>
      <!-- effect -->
      <g style="fill: #333333" transform="translate(354.88101 406.040073) scale(0.1 -0.1)">
       <use xlink:href="#DejaVuSans-65"/>
       <use xlink:href="#DejaVuSans-66" transform="translate(61.523438 0)"/>
       <use xlink:href="#DejaVuSans-66" transform="translate(96.728516 0)"/>
       <use xlink:href="#DejaVuSans-65" transform="translate(131.933594 0)"/>
       <use xlink:href="#DejaVuSans-63" transform="translate(193.457031 0)"/>
       <use xlink:href="#DejaVuSans-74" transform="translate(248.4375 0)"/>
      </g>
     </g>
    </g>
    <g id="xtick_4">
     <g id="line2d_4">
      <g>
       <use xlink:href="#m344ba27b6f" x="490.777552" y="380.243823" style="fill: #333333; stroke: #333333; stroke-width: 0.8"/>
      </g>
     </g>
     <g id="text_4">
      <!-- Interaction -->
      <g style="fill: #333333" transform="translate(463.65099 394.84226) scale(0.1 -0.1)">
       <defs>
        <path id="DejaVuSans-49" d="M 628 4666 
L 1259 4666 
L 1259 0 
L 628 0 
L 628 4666 
z
" transform="scale(0.015625)"/>
       </defs>
       <use xlink:href="#DejaVuSans-49"/>
       <use xlink:href="#DejaVuSans-6e" transform="translate(29.492188 0)"/>
       <use xlink:href="#DejaVuSans-74" transform="translate(92.871094 0)"/>
       <use xlink:href="#DejaVuSans-65" transform="translate(132.080078 0)"/>
       <use xlink:href="#DejaVuSans-72" transform="translate(193.603516 0)"/>
       <use xlink:href="#DejaVuSans-61" transform="translate(234.716797 0)"/>
       <use xlink:href="#DejaVuSans-63" transform="translate(295.996094 0)"/>
       <use xlink:href="#DejaVuSans-74" transform="translate(350.976562 0)"/>
       <use xlink:href="#DejaVuSans-69" transform="translate(390.185547 0)"/>
       <use xlink:href="#DejaVuSans-6f" transform="translate(417.96875 0)"/>
       <use xlink:href="#DejaVuSans-6e" transform="translate(479.150391 0)"/>
      </g>
     </g>
    </g>
    <g id="xtick_5">
     <g id="line2d_5">
      <g>
       <use xlink:href="#m344ba27b6f" x="612.291282" y="380.243823" style="fill: #333333; stroke: #333333; stroke-width: 0.8"/>
      </g>
     </g>
     <g id="text_5">
      <!-- 2024/25 -->
      <g style="fill: #333333" transform="translate(591.519407 394.84226) scale(0.1 -0.1)">
       <defs>
        <path id="DejaVuSans-34" d="M 2419 4116 
L 825 1625 
L 2419 1625 
L 2419 4116 
z
M 2253 4666 
L 3047 4666 
L 3047 1625 
L 3713 1625 
L 3713 1100 
L 3047 1100 
L 3047 0 
L 2419 0 
L 2419 1100 
L 313 1100 
L 313 1709 
L 2253 4666 
z
" transform="scale(0.015625)"/>
        <path id="DejaVuSans-2f" d="M 1625 4666 
L 2156 4666 
L 531 -594 
L 0 -594 
L 1625 4666 
z
" transform="scale(0.015625)"/>
        <path id="DejaVuSans-35" d="M 691 4666 
L 3169 4666 
L 3169 4134 
L 1269 4134 
L 1269 2991 
Q 1406 3038 1543 3061 
Q 1681 3084 1819 3084 
Q 2600 3084 3056 2656 
Q 3513 2228 3513 1497 
Q 3513 744 3044 326 
Q 2575 -91 1722 -91 
Q 1428 -91 1123 -41 
Q 819 9 494 109 
L 494 744 
Q 775 591 1075 516 
Q 1375 441 1709 441 
Q 2250 441 2565 725 
Q 2881 1009 2881 1497 
Q 2881 1984 2565 2268 
Q 2250 2553 1709 2553 
Q 1456 2553 1204 2497 
Q 953 2441 691 2322 
L 691 4666 
z
" transform="scale(0.015625)"/>
       </defs>
       <use xlink:href="#DejaVuSans-32"/>
       <use xlink:href="#DejaVuSans-30" transform="translate(63.623047 0)"/>
       <use xlink:href="#DejaVuSans-32" transform="translate(127.246094 0)"/>
       <use xlink:href="#DejaVuSans-34" transform="translate(190.869141 0)"/>
       <use xlink:href="#DejaVuSans-2f" transform="translate(254.492188 0)"/>
       <use xlink:href="#DejaVuSans-32" transform="translate(288.183594 0)"/>
       <use xlink:href="#DejaVuSans-35" transform="translate(351.806641 0)"/>
      </g>
      <!-- outturn -->
      <g style="fill: #333333" transform="translate(593.837376 406.040073) scale(0.1 -0.1)">
       <defs>
        <path id="DejaVuSans-75" d="M 544 1381 
L 544 3500 
L 1119 3500 
L 1119 1403 
Q 1119 906 1312 657 
Q 1506 409 1894 409 
Q 2359 409 2629 706 
Q 2900 1003 2900 1516 
L 2900 3500 
L 3475 3500 
L 3475 0 
L 2900 0 
L 2900 538 
Q 2691 219 2414 64 
Q 2138 -91 1772 -91 
Q 1169 -91 856 284 
Q 544 659 544 1381 
z
M 1991 3584 
L 1991 3584 
z
" transform="scale(0.015625)"/>
       </defs>
       <use xlink:href="#DejaVuSans-6f"/>
       <use xlink:href="#DejaVuSans-75" transform="translate(61.181641 0)"/>
       <use xlink:href="#DejaVuSans-74" transform="translate(124.560547 0)"/>
       <use xlink:href="#DejaVuSans-74" transform="translate(163.769531 0)"/>
       <use xlink:href="#DejaVuSans-75" transform="translate(202.978516 0)"/>
       <use xlink:href="#DejaVuSans-72" transform="translate(266.357422 0)"/>
       <use xlink:href="#DejaVuSans-6e" transform="translate(305.720703 0)"/>
      </g>
     </g>
    </g>
   </g>
   <g id="matplotlib.axis_2">
    <g id="ytick_1">
     <g id="line2d_6">
      <defs>
       <path id="mc45225645a" d="M 0 0 
L -3.5 0 
" style="stroke: #333333; stroke-width: 0.8"/>
      </defs>
      <g>
       <use xlink:href="#mc45225645a" x="53.328125" y="380.243823" style="fill: #333333; stroke: #333333; stroke-width: 0.8"/>
      </g>
     </g>
     <g id="text_6">
      <!-- 0 -->
      <g style="fill: #333333" transform="translate(39.965625 384.043041) scale(0.1 -0.1)">
       <use xlink:href="#DejaVuSans-30"/>
      </g>
     </g>
    </g>
    <g id="ytick_2">
     <g id="line2d_7">
      <g>
       <use xlink:href="#mc45225645a" x="53.328125" y="317.265808" style="fill: #333333; stroke: #333333; stroke-width: 0.8"/>
      </g>
     </g>
     <g id="text_7">
      <!-- 200 -->
      <g style="fill: #333333" transform="translate(27.240625 321.065027) scale(0.1 -0.1)">
       <use xlink:href="#DejaVuSans-32"/>
       <use xlink:href="#DejaVuSans-30" transform="translate(63.623047 0)"/>
       <use xlink:href="#DejaVuSans-30" transform="translate(127.246094 0)"/>
      </g>
     </g>
    </g>
    <g id="ytick_3">
     <g id="line2d_8">
      <g>
       <use xlink:href="#mc45225645a" x="53.328125" y="254.287794" style="fill: #333333; stroke: #333333; stroke-width: 0.8"/>
      </g>
     </g>
     <g id="text_8">
      <!-- 400 -->
      <g style="fill: #333333" transform="translate(27.240625 258.087013) scale(0.1 -0.1)">
       <use xlink:href="#DejaVuSans-34"/>
       <use xlink:href="#DejaVuSans-30" transform="translate(63.623047 0)"/>
       <use xlink:href="#DejaVuSans-30" transform="translate(127.246094 0)"/>
      </g>
     </g>
    </g>
    <g id="ytick_4">
     <g id="line2d_9">
      <g>
       <use xlink:href="#mc45225645a" x="53.328125" y="191.309779" style="fill: #333333; stroke: #333333; stroke-width: 0.8"/>
      </g>
     </g>
     <g id="text_9">
      <!-- 600 -->
      <g style="fill: #333333" transform="translate(27.240625 195.108998) scale(0.1 -0.1)">
       <defs>
        <path id="DejaVuSans-36" d="M 2113 2584 
Q 1688 2584 1439 2293 
Q 1191 2003 1191 1497 
Q 1191 994 1439 701 
Q 1688 409 2113 409 
Q 2538 409 2786 701 
Q 3034 994 3034 1497 
Q 3034 2003 2786 2293 
Q 2538 2584 2113 2584 
z
M 3366 4563 
L 3366 3988 
Q 3128 4100 2886 4159 
Q 2644 4219 2406 4219 
Q 1781 4219 1451 3797 
Q 1122 3375 1075 2522 
Q 1259 2794 1537 2939 
Q 1816 3084 2150 3084 
Q 2853 3084 3261 2657 
Q 3669 2231 3669 1497 
Q 3669 778 3244 343 
Q 2819 -91 2113 -91 
Q 1303 -91 875 529 
Q 447 1150 447 2328 
Q 447 3434 972 4092 
Q 1497 4750 2381 4750 
Q 2619 4750 2861 4703 
Q 3103 4656 3366 4563 
z
" transform="scale(0.015625)"/>
       </defs>
       <use xlink:href="#DejaVuSans-36"/>
       <use xlink:href="#DejaVuSans-30" transform="translate(63.623047 0)"/>
       <use xlink:href="#DejaVuSans-30" transform="translate(127.246094 0)"/>
      </g>
     </g>
    </g>
    <g id="ytick_5">
     <g id="line2d_10">
      <g>
       <use xlink:href="#mc45225645a" x="53.328125" y="128.331765" style="fill: #333333; stroke: #333333; stroke-width: 0.8"/>
      </g>
     </g>
     <g id="text_10">
      <!-- 800 -->
      <g style="fill: #333333" transform="translate(27.240625 132.130984) scale(0.1 -0.1)">
       <defs>
        <path id="DejaVuSans-38" d="M 2034 2216 
Q 1584 2216 1326 1975 
Q 1069 1734 1069 1313 
Q 1069 891 1326 650 
Q 1584 409 2034 409 
Q 2484 409 2743 651 
Q 3003 894 3003 1313 
Q 3003 1734 2745 1975 
Q 2488 2216 2034 2216 
z
M 1403 2484 
Q 997 2584 770 2862 
Q 544 3141 544 3541 
Q 544 4100 942 4425 
Q 1341 4750 2034 4750 
Q 2731 4750 3128 4425 
Q 3525 4100 3525 3541 
Q 3525 3141 3298 2862 
Q 3072 2584 2669 2484 
Q 3125 2378 3379 2068 
Q 3634 1759 3634 1313 
Q 3634 634 3220 271 
Q 2806 -91 2034 -91 
Q 1263 -91 848 271 
Q 434 634 434 1313 
Q 434 1759 690 2068 
Q 947 2378 1403 2484 
z
M 1172 3481 
Q 1172 3119 1398 2916 
Q 1625 2713 2034 2713 
Q 2441 2713 2670 2916 
Q 2900 3119 2900 3481 
Q 2900 3844 2670 4047 
Q 2441 4250 2034 4250 
Q 1625 4250 1398 4047 
Q 1172 3844 1172 3481 
z
" transform="scale(0.015625)"/>
       </defs>
       <use xlink:href="#DejaVuSans-38"/>
       <use xlink:href="#DejaVuSans-30" transform="translate(63.623047 0)"/>
       <use xlink:href="#DejaVuSans-30" transform="translate(127.246094 0)"/>
      </g>
     </g>
    </g>
    <g id="ytick_6">
     <g id="line2d_11">
      <g>
       <use xlink:href="#mc45225645a" x="53.328125" y="65.353751" style="fill: #333333; stroke: #333333; stroke-width: 0.8"/>
      </g>
     </g>
     <g id="text_11">
      <!-- 1000 -->
      <g style="fill: #333333" transform="translate(20.878125 69.15297) scale(0.1 -0.1)">
       <use xlink:href="#DejaVuSans-31"/>
       <use xlink:href="#DejaVuSans-30" transform="translate(63.623047 0)"/>
       <use xlink:href="#DejaVuSans-30" transform="translate(127.246094 0)"/>
       <use xlink:href="#DejaVuSans-30" transform="translate(190.869141 0)"/>
      </g>
     </g>
    </g>
    <g id="text_12">
     <!-- £ million -->
     <g transform="translate(14.798438 220.607031) rotate(-90) scale(0.1 -0.1)">
      <defs>
       <path id="DejaVuSans-a3" d="M 3444 4563 
L 3444 3994 
Q 3206 4122 2993 4186 
Q 2781 4250 2591 4250 
Q 2128 4250 1947 4008 
Q 1766 3766 1766 3103 
L 1766 2431 
L 2988 2431 
L 2988 1984 
L 1766 1984 
L 1766 531 
L 3506 531 
L 3506 0 
L 403 0 
L 403 531 
L 1141 531 
L 1141 1984 
L 519 1984 
L 519 2431 
L 1141 2431 
L 1141 3175 
Q 1141 3991 1475 4370 
Q 1809 4750 2534 4750 
Q 2725 4750 2961 4701 
Q 3197 4653 3444 4563 
z
" transform="scale(0.015625)"/>
       <path id="DejaVuSans-20" transform="scale(0.015625)"/>
      </defs>
      <use xlink:href="#DejaVuSans-a3"/>
      <use xlink:href="#DejaVuSans-20" transform="translate(63.623047 0)"/>
      <use xlink:href="#DejaVuSans-6d" transform="translate(95.410156 0)"/>
      <use xlink:href="#DejaVuSans-69" transform="translate(192.822266 0)"/>
      <use xlink:href="#DejaVuSans-6c" transform="translate(220.605469 0)"/>
      <use xlink:href="#DejaVuSans-6c" transform="translate(248.388672 0)"/>
      <use xlink:href="#DejaVuSans-69" transform="translate(276.171875 0)"/>
      <use xlink:href="#DejaVuSans-6f" transform="translate(303.955078 0)"/>
      <use xlink:href="#DejaVuSans-6e" transform="translate(365.136719 0)"/>
     </g>
    </g>
   </g>
   <g id="line2d_12">
    <path d="M 163.905619 53.702818 
L 210.080836 53.702818 
" clip-path="url(#pfc7b1c744d)" style="fill: none; stroke-dasharray: 2.59,1.12; stroke-dashoffset: 0; stroke: #404040; stroke-opacity: 0.55; stroke-width: 0.7"/>
   </g>
   <g id="line2d_13">
    <path d="M 285.419349 94.008747 
L 331.594566 94.008747 
" clip-path="url(#pfc7b1c744d)" style="fill: none; stroke-dasharray: 2.59,1.12; stroke-dashoffset: 0; stroke: #404040; stroke-opacity: 0.55; stroke-width: 0.7"/>
   </g>
   <g id="line2d_14">
    <path d="M 406.933079 186.271538 
L 453.108296 186.271538 
" clip-path="url(#pfc7b1c744d)" style="fill: none; stroke-dasharray: 2.59,1.12; stroke-dashoffset: 0; stroke: #404040; stroke-opacity: 0.55; stroke-width: 0.7"/>
   </g>
   <g id="line2d_15">
    <path d="M 528.446809 174.935496 
L 574.622026 174.935496 
" clip-path="url(#pfc7b1c744d)" style="fill: none; stroke-dasharray: 2.59,1.12; stroke-dashoffset: 0; stroke: #404040; stroke-opacity: 0.55; stroke-width: 0.7"/>
   </g>
   <g id="patch_8">
    <path d="M 53.328125 380.243823 
L 53.328125 18.12024 
" style="fill: none; stroke: #333333; stroke-width: 0.8; stroke-linejoin: miter; stroke-linecap: square"/>
   </g>
   <g id="patch_9">
    <path d="M 53.328125 380.243823 
L 685.19952 380.243823 
" style="fill: none; stroke: #333333; stroke-width: 0.8; stroke-linejoin: miter; stroke-linecap: square"/>
   </g>
   <g id="text_13">
    <!-- £1,037m -->
    <g style="fill: #2b2b2b" transform="translate(103.870738 45.955109) scale(0.1 -0.1)">
     <defs>
      <path id="DejaVuSans-2c" d="M 750 794 
L 1409 794 
L 1409 256 
L 897 -744 
L 494 -744 
L 750 256 
L 750 794 
z
" transform="scale(0.015625)"/>
      <path id="DejaVuSans-33" d="M 2597 2516 
Q 3050 2419 3304 2112 
Q 3559 1806 3559 1356 
Q 3559 666 3084 287 
Q 2609 -91 1734 -91 
Q 1441 -91 1130 -33 
Q 819 25 488 141 
L 488 750 
Q 750 597 1062 519 
Q 1375 441 1716 441 
Q 2309 441 2620 675 
Q 2931 909 2931 1356 
Q 2931 1769 2642 2001 
Q 2353 2234 1838 2234 
L 1294 2234 
L 1294 2753 
L 1863 2753 
Q 2328 2753 2575 2939 
Q 2822 3125 2822 3475 
Q 2822 3834 2567 4026 
Q 2313 4219 1838 4219 
Q 1578 4219 1281 4162 
Q 984 4106 628 3988 
L 628 4550 
Q 988 4650 1302 4700 
Q 1616 4750 1894 4750 
Q 2613 4750 3031 4423 
Q 3450 4097 3450 3541 
Q 3450 3153 3228 2886 
Q 3006 2619 2597 2516 
z
" transform="scale(0.015625)"/>
      <path id="DejaVuSans-37" d="M 525 4666 
L 3525 4666 
L 3525 4397 
L 1831 0 
L 1172 0 
L 2766 4134 
L 525 4134 
L 525 4666 
z
" transform="scale(0.015625)"/>
     </defs>
     <use xlink:href="#DejaVuSans-a3"/>
     <use xlink:href="#DejaVuSans-31" transform="translate(63.623047 0)"/>
     <use xlink:href="#DejaVuSans-2c" transform="translate(127.246094 0)"/>
     <use xlink:href="#DejaVuSans-30" transform="translate(159.033203 0)"/>
     <use xlink:href="#DejaVuSans-33" transform="translate(222.65625 0)"/>
     <use xlink:href="#DejaVuSans-37" transform="translate(286.279297 0)"/>
     <use xlink:href="#DejaVuSans-6d" transform="translate(349.902344 0)"/>
    </g>
   </g>
   <g id="text_14">
    <!-- −£128m -->
    <g style="fill: #2b2b2b" transform="translate(225.964936 45.955109) scale(0.1 -0.1)">
     <defs>
      <path id="DejaVuSans-2212" d="M 678 2272 
L 4684 2272 
L 4684 1741 
L 678 1741 
L 678 2272 
z
" transform="scale(0.015625)"/>
     </defs>
     <use xlink:href="#DejaVuSans-2212"/>
     <use xlink:href="#DejaVuSans-a3" transform="translate(83.789062 0)"/>
     <use xlink:href="#DejaVuSans-31" transform="translate(147.412109 0)"/>
     <use xlink:href="#DejaVuSans-32" transform="translate(211.035156 0)"/>
     <use xlink:href="#DejaVuSans-38" transform="translate(274.658203 0)"/>
     <use xlink:href="#DejaVuSans-6d" transform="translate(338.28125 0)"/>
    </g>
   </g>
   <g id="text_15">
    <!-- −£293m -->
    <g style="fill: #2b2b2b" transform="translate(347.478666 86.261038) scale(0.1 -0.1)">
     <use xlink:href="#DejaVuSans-2212"/>
     <use xlink:href="#DejaVuSans-a3" transform="translate(83.789062 0)"/>
     <use xlink:href="#DejaVuSans-32" transform="translate(147.412109 0)"/>
     <use xlink:href="#DejaVuSans-39" transform="translate(211.035156 0)"/>
     <use xlink:href="#DejaVuSans-33" transform="translate(274.658203 0)"/>
     <use xlink:href="#DejaVuSans-6d" transform="translate(338.28125 0)"/>
    </g>
   </g>
   <g id="text_16">
    <!-- +£36m -->
    <g style="fill: #2b2b2b" transform="translate(472.173646 167.187787) scale(0.1 -0.1)">
     <defs>
      <path id="DejaVuSans-2b" d="M 2944 4013 
L 2944 2272 
L 4684 2272 
L 4684 1741 
L 2944 1741 
L 2944 0 
L 2419 0 
L 2419 1741 
L 678 1741 
L 678 2272 
L 2419 2272 
L 2419 4013 
L 2944 4013 
z
" transform="scale(0.015625)"/>
     </defs>
     <use xlink:href="#DejaVuSans-2b"/>
     <use xlink:href="#DejaVuSans-a3" transform="translate(83.789062 0)"/>
     <use xlink:href="#DejaVuSans-33" transform="translate(147.412109 0)"/>
     <use xlink:href="#DejaVuSans-36" transform="translate(211.035156 0)"/>
     <use xlink:href="#DejaVuSans-6d" transform="translate(274.658203 0)"/>
    </g>
   </g>
   <g id="text_17">
    <!-- £652m -->
    <g style="fill: #2b2b2b" transform="translate(594.69597 167.187787) scale(0.1 -0.1)">
     <use xlink:href="#DejaVuSans-a3"/>
     <use xlink:href="#DejaVuSans-36" transform="translate(63.623047 0)"/>
     <use xlink:href="#DejaVuSans-35" transform="translate(127.246094 0)"/>
     <use xlink:href="#DejaVuSans-32" transform="translate(190.869141 0)"/>
     <use xlink:href="#DejaVuSans-6d" transform="translate(254.492188 0)"/>
    </g>
   </g>
  </g>
  <g id="text_18">
   <!-- Revenue shortfall decomposition: 2019 forecast to 2024/25 outturn -->
   <g transform="translate(143.45226 16.318125) scale(0.12 -0.12)">
    <defs>
     <path id="DejaVuSans-52" d="M 2841 2188 
Q 3044 2119 3236 1894 
Q 3428 1669 3622 1275 
L 4263 0 
L 3584 0 
L 2988 1197 
Q 2756 1666 2539 1819 
Q 2322 1972 1947 1972 
L 1259 1972 
L 1259 0 
L 628 0 
L 628 4666 
L 2053 4666 
Q 2853 4666 3247 4331 
Q 3641 3997 3641 3322 
Q 3641 2881 3436 2590 
Q 3231 2300 2841 2188 
z
M 1259 4147 
L 1259 2491 
L 2053 2491 
Q 2509 2491 2742 2702 
Q 2975 2913 2975 3322 
Q 2975 3731 2742 3939 
Q 2509 4147 2053 4147 
L 1259 4147 
z
" transform="scale(0.015625)"/>
     <path id="DejaVuSans-76" d="M 191 3500 
L 800 3500 
L 1894 563 
L 2988 3500 
L 3597 3500 
L 2284 0 
L 1503 0 
L 191 3500 
z
" transform="scale(0.015625)"/>
     <path id="DejaVuSans-68" d="M 3513 2113 
L 3513 0 
L 2938 0 
L 2938 2094 
Q 2938 2591 2744 2837 
Q 2550 3084 2163 3084 
Q 1697 3084 1428 2787 
Q 1159 2491 1159 1978 
L 1159 0 
L 581 0 
L 581 4863 
L 1159 4863 
L 1159 2956 
Q 1366 3272 1645 3428 
Q 1925 3584 2291 3584 
Q 2894 3584 3203 3211 
Q 3513 2838 3513 2113 
z
" transform="scale(0.015625)"/>
     <path id="DejaVuSans-70" d="M 1159 525 
L 1159 -1331 
L 581 -1331 
L 581 3500 
L 1159 3500 
L 1159 2969 
Q 1341 3281 1617 3432 
Q 1894 3584 2278 3584 
Q 2916 3584 3314 3078 
Q 3713 2572 3713 1747 
Q 3713 922 3314 415 
Q 2916 -91 2278 -91 
Q 1894 -91 1617 61 
Q 1341 213 1159 525 
z
M 3116 1747 
Q 3116 2381 2855 2742 
Q 2594 3103 2138 3103 
Q 1681 3103 1420 2742 
Q 1159 2381 1159 1747 
Q 1159 1113 1420 752 
Q 1681 391 2138 391 
Q 2594 391 2855 752 
Q 3116 1113 3116 1747 
z
" transform="scale(0.015625)"/>
     <path id="DejaVuSans-3a" d="M 750 794 
L 1409 794 
L 1409 0 
L 750 0 
L 750 794 
z
M 750 3309 
L 1409 3309 
L 1409 2516 
L 750 2516 
L 750 3309 
z
" transform="scale(0.015625)"/>
    </defs>
    <use xlink:href="#DejaVuSans-52"/>
    <use xlink:href="#DejaVuSans-65" transform="translate(64.982422 0)"/>
    <use xlink:href="#DejaVuSans-76" transform="translate(126.505859 0)"/>
    <use xlink:href="#DejaVuSans-65" transform="translate(185.685547 0)"/>
    <use xlink:href="#DejaVuSans-6e" transform="translate(247.208984 0)"/>
    <use xlink:href="#DejaVuSans-75" transform="translate(310.587891 0)"/>
    <use xlink:href="#DejaVuSans-65" transform="translate(373.966797 0)"/>
    <use xlink:href="#DejaVuSans-20" transform="translate(435.490234 0)"/>
    <use xlink:href="#DejaVuSans-73" transform="translate(467.277344 0)"/>
    <use xlink:href="#DejaVuSans-68" transform="translate(519.376953 0)"/>
    <use xlink:href="#DejaVuSans-6f" transform="translate(582.755859 0)"/>
    <use xlink:href="#DejaVuSans-72" transform="translate(643.9375 0)"/>
    <use xlink:href="#DejaVuSans-74" transform="translate(685.050781 0)"/>
    <use xlink:href="#DejaVuSans-66" transform="translate(724.259766 0)"/>
    <use xlink:href="#DejaVuSans-61" transform="translate(759.464844 0)"/>
    <use xlink:href="#DejaVuSans-6c" transform="translate(820.744141 0)"/>
    <use xlink:href="#DejaVuSans-6c" transform="translate(848.527344 0)"/>
    <use xlink:href="#DejaVuSans-20" transform="translate(876.310547 0)"/>
    <use xlink:href="#DejaVuSans-64" transform="translate(908.097656 0)"/>
    <use xlink:href="#DejaVuSans-65" transform="translate(971.574219 0)"/>
    <use xlink:href="#DejaVuSans-63" transform="translate(1033.097656 0)"/>
    <use xlink:href="#DejaVuSans-6f" transform="translate(1088.078125 0)"/>
    <use xlink:href="#DejaVuSans-6d" transform="translate(1149.259766 0)"/>
    <use xlink:href="#DejaVuSans-70" transform="translate(1246.671875 0)"/>
    <use xlink:href="#DejaVuSans-6f" transform="translate(1310.148438 0)"/>
    <use xlink:href="#DejaVuSans-73" transform="translate(1371.330078 0)"/>
    <use xlink:href="#DejaVuSans-69" transform="translate(1423.429688 0)"/>
    <use xlink:href="#DejaVuSans-74" transform="translate(1451.212891 0)"/>
    <use xlink:href="#DejaVuSans-69" transform="translate(1490.421875 0)"/>
    <use xlink:href="#DejaVuSans-6f" transform="translate(1518.205078 0)"/>
    <use xlink:href="#DejaVuSans-6e" transform="translate(1579.386719 0)"/>
    <use xlink:href="#DejaVuSans-3a" transform="translate(1642.765625 0)"/>
    <use xlink:href="#DejaVuSans-20" transform="translate(1676.457031 0)"/>
    <use xlink:href="#DejaVuSans-32" transform="translate(1708.244141 0)"/>
    <use xlink:href="#DejaVuSans-30" transform="translate(1771.867188 0)"/>
    <use xlink:href="#DejaVuSans-31" transform="translate(1835.490234 0)"/>
    <use xlink:href="#DejaVuSans-39" transform="translate(1899.113281 0)"/>
    <use xlink:href="#DejaVuSans-20" transform="translate(1962.736328 0)"/>
    <use xlink:href="#DejaVuSans-66" transform="translate(1994.523438 0)"/>
    <use xlink:href="#DejaVuSans-6f" transform="translate(2029.728516 0)"/>
    <use xlink:href="#DejaVuSans-72" transform="translate(2090.910156 0)"/>
    <use xlink:href="#DejaVuSans-65" transform="translate(2129.773438 0)"/>
    <use xlink:href="#DejaVuSans-63" transform="translate(2191.296875 0)"/>
    <use xlink:href="#DejaVuSans-61" transform="translate(2246.277344 0)"/>
    <use xlink:href="#DejaVuSans-73" transform="translate(2307.556641 0)"/>
    <use xlink:href="#DejaVuSans-74" transform="translate(2359.65625 0)"/>
    <use xlink:href="#DejaVuSans-20" transform="translate(2398.865234 0)"/>
    <use xlink:href="#DejaVuSans-74" transform="translate(2430.652344 0)"/>
    <use xlink:href="#DejaVuSans-6f" transform="translate(2469.861328 0)"/>
    <use xlink:href="#DejaVuSans-20" transform="translate(2531.042969 0)"/>
    <use xlink:href="#DejaVuSans-32" transform="translate(2562.830078 0)"/>
    <use xlink:href="#DejaVuSans-30" transform="translate(2626.453125 0)"/>
    <use xlink:href="#DejaVuSans-32" transform="translate(2690.076172 0)"/>
    <use xlink:href="#DejaVuSans-34" transform="translate(2753.699219 0)"/>
    <use xlink:href="#DejaVuSans-2f" transform="translate(2817.322266 0)"/>
    <use xlink:href="#DejaVuSans-32" transform="translate(2851.013672 0)"/>
    <use xlink:href="#DejaVuSans-35" transform="translate(2914.636719 0)"/>
    <use xlink:href="#DejaVuSans-20" transform="translate(2978.259766 0)"/>
    <use xlink:href="#DejaVuSans-6f" transform="translate(3010.046875 0)"/>
    <use xlink:href="#DejaVuSans-75" transform="translate(3071.228516 0)"/>
    <use xlink:href="#DejaVuSans-74" transform="translate(3134.607422 0)"/>
    <use xlink:href="#DejaVuSans-74" transform="translate(3173.816406 0)"/>
    <use xlink:href="#DejaVuSans-75" transform="translate(3213.025391 0)"/>
    <use xlink:href="#DejaVuSans-72" transform="translate(3276.404297 0)"/>
    <use xlink:href="#DejaVuSans-6e" transform="translate(3315.767578 0)"/>
   </g>
  </g>
  <g id="text_19">
   <!-- Decomposition reconciles multiplicatively: demand ratio 0.877 × yield ratio 0.717 = 0.629  (= 1 − 0.371 revenue drift) -->
   <g style="fill: #6c6c6c" transform="translate(77.203823 425.878594) scale(0.09 -0.09)">
    <defs>
     <path id="DejaVuSans-Oblique-44" d="M 1081 4666 
L 2438 4666 
Q 3519 4666 4070 4208 
Q 4622 3750 4622 2847 
Q 4622 2250 4412 1698 
Q 4203 1147 3834 769 
Q 3463 381 2891 190 
Q 2319 0 1538 0 
L 172 0 
L 1081 4666 
z
M 1613 4147 
L 909 519 
L 1734 519 
Q 2794 519 3375 1128 
Q 3956 1738 3956 2847 
Q 3956 3519 3581 3833 
Q 3206 4147 2406 4147 
L 1613 4147 
z
" transform="scale(0.015625)"/>
     <path id="DejaVuSans-Oblique-65" d="M 3078 2063 
Q 3088 2113 3092 2166 
Q 3097 2219 3097 2272 
Q 3097 2653 2873 2875 
Q 2650 3097 2266 3097 
Q 1838 3097 1509 2826 
Q 1181 2556 1013 2059 
L 3078 2063 
z
M 3578 1613 
L 903 1613 
Q 884 1494 878 1425 
Q 872 1356 872 1306 
Q 872 872 1139 634 
Q 1406 397 1894 397 
Q 2269 397 2603 481 
Q 2938 566 3225 728 
L 3116 159 
Q 2806 34 2476 -28 
Q 2147 -91 1806 -91 
Q 1078 -91 686 257 
Q 294 606 294 1247 
Q 294 1794 489 2264 
Q 684 2734 1063 3103 
Q 1306 3334 1642 3459 
Q 1978 3584 2356 3584 
Q 2950 3584 3301 3228 
Q 3653 2872 3653 2272 
Q 3653 2128 3634 1964 
Q 3616 1800 3578 1613 
z
" transform="scale(0.015625)"/>
     <path id="DejaVuSans-Oblique-63" d="M 3431 3366 
L 3316 2797 
Q 3109 2947 2876 3022 
Q 2644 3097 2394 3097 
Q 2119 3097 1870 3000 
Q 1622 2903 1453 2725 
Q 1184 2453 1037 2087 
Q 891 1722 891 1331 
Q 891 859 1127 628 
Q 1363 397 1844 397 
Q 2081 397 2348 469 
Q 2616 541 2906 684 
L 2797 116 
Q 2547 13 2283 -39 
Q 2019 -91 1741 -91 
Q 1044 -91 669 257 
Q 294 606 294 1253 
Q 294 1797 489 2255 
Q 684 2713 1069 3078 
Q 1331 3328 1684 3456 
Q 2038 3584 2456 3584 
Q 2700 3584 2940 3529 
Q 3181 3475 3431 3366 
z
" transform="scale(0.015625)"/>
     <path id="DejaVuSans-Oblique-6f" d="M 1625 -91 
Q 1009 -91 651 289 
Q 294 669 294 1325 
Q 294 1706 417 2101 
Q 541 2497 738 2766 
Q 1047 3184 1428 3384 
Q 1809 3584 2291 3584 
Q 2888 3584 3255 3212 
Q 3622 2841 3622 2241 
Q 3622 1825 3500 1412 
Q 3378 1000 3181 728 
Q 2875 309 2494 109 
Q 2113 -91 1625 -91 
z
M 891 1344 
Q 891 869 1089 633 
Q 1288 397 1691 397 
Q 2269 397 2648 901 
Q 3028 1406 3028 2181 
Q 3028 2634 2825 2865 
Q 2622 3097 2228 3097 
Q 1903 3097 1650 2945 
Q 1397 2794 1197 2484 
Q 1050 2253 970 1956 
Q 891 1659 891 1344 
z
" transform="scale(0.015625)"/>
     <path id="DejaVuSans-Oblique-6d" d="M 5747 2113 
L 5338 0 
L 4763 0 
L 5166 2094 
Q 5191 2228 5203 2325 
Q 5216 2422 5216 2491 
Q 5216 2772 5059 2928 
Q 4903 3084 4622 3084 
Q 4203 3084 3875 2770 
Q 3547 2456 3450 1953 
L 3066 0 
L 2491 0 
L 2900 2094 
Q 2925 2209 2937 2307 
Q 2950 2406 2950 2484 
Q 2950 2769 2794 2926 
Q 2638 3084 2363 3084 
Q 1938 3084 1609 2770 
Q 1281 2456 1184 1953 
L 800 0 
L 225 0 
L 909 3500 
L 1484 3500 
L 1375 2956 
Q 1609 3263 1923 3423 
Q 2238 3584 2597 3584 
Q 2978 3584 3223 3384 
Q 3469 3184 3519 2828 
Q 3781 3197 4126 3390 
Q 4472 3584 4856 3584 
Q 5306 3584 5551 3325 
Q 5797 3066 5797 2591 
Q 5797 2488 5784 2364 
Q 5772 2241 5747 2113 
z
" transform="scale(0.015625)"/>
     <path id="DejaVuSans-Oblique-70" d="M 3175 2156 
Q 3175 2616 2975 2859 
Q 2775 3103 2400 3103 
Q 2144 3103 1911 2972 
Q 1678 2841 1497 2591 
Q 1319 2344 1212 1994 
Q 1106 1644 1106 1300 
Q 1106 863 1306 627 
Q 1506 391 1875 391 
Q 2147 391 2380 519 
Q 2613 647 2778 891 
Q 2956 1147 3065 1494 
Q 3175 1841 3175 2156 
z
M 1394 2969 
Q 1625 3272 1939 3428 
Q 2253 3584 2638 3584 
Q 3175 3584 3472 3232 
Q 3769 2881 3769 2247 
Q 3769 1728 3584 1258 
Q 3400 788 3053 416 
Q 2822 169 2531 39 
Q 2241 -91 1919 -91 
Q 1547 -91 1294 64 
Q 1041 219 916 525 
L 556 -1331 
L -19 -1331 
L 922 3500 
L 1497 3500 
L 1394 2969 
z
" transform="scale(0.015625)"/>
     <path id="DejaVuSans-Oblique-73" d="M 3200 3397 
L 3091 2853 
Q 2863 2978 2609 3040 
Q 2356 3103 2088 3103 
Q 1634 3103 1373 2948 
Q 1113 2794 1113 2528 
Q 1113 2219 1719 2053 
Q 1766 2041 1788 2034 
L 1972 1978 
Q 2547 1819 2739 1644 
Q 2931 1469 2931 1166 
Q 2931 609 2489 259 
Q 2047 -91 1331 -91 
Q 1053 -91 747 -37 
Q 441 16 72 128 
L 184 722 
Q 500 559 806 475 
Q 1113 391 1394 391 
Q 1816 391 2080 572 
Q 2344 753 2344 1031 
Q 2344 1331 1650 1516 
L 1591 1531 
L 1394 1581 
Q 956 1697 753 1886 
Q 550 2075 550 2369 
Q 550 2928 970 3256 
Q 1391 3584 2113 3584 
Q 2397 3584 2667 3537 
Q 2938 3491 3200 3397 
z
" transform="scale(0.015625)"/>
     <path id="DejaVuSans-Oblique-69" d="M 1172 4863 
L 1747 4863 
L 1606 4134 
L 1031 4134 
L 1172 4863 
z
M 909 3500 
L 1484 3500 
L 800 0 
L 225 0 
L 909 3500 
z
" transform="scale(0.015625)"/>
     <path id="DejaVuSans-Oblique-74" d="M 2706 3500 
L 2619 3053 
L 1472 3053 
L 1100 1153 
Q 1081 1047 1072 975 
Q 1063 903 1063 863 
Q 1063 663 1183 572 
Q 1303 481 1569 481 
L 2150 481 
L 2053 0 
L 1503 0 
Q 991 0 739 200 
Q 488 400 488 806 
Q 488 878 497 964 
Q 506 1050 525 1153 
L 897 3053 
L 409 3053 
L 500 3500 
L 978 3500 
L 1172 4494 
L 1747 4494 
L 1556 3500 
L 2706 3500 
z
" transform="scale(0.015625)"/>
     <path id="DejaVuSans-Oblique-6e" d="M 3566 2113 
L 3156 0 
L 2578 0 
L 2988 2091 
Q 3016 2238 3031 2350 
Q 3047 2463 3047 2528 
Q 3047 2791 2881 2937 
Q 2716 3084 2419 3084 
Q 1956 3084 1622 2776 
Q 1288 2469 1184 1941 
L 800 0 
L 225 0 
L 903 3500 
L 1478 3500 
L 1363 2950 
Q 1603 3253 1940 3418 
Q 2278 3584 2650 3584 
Q 3113 3584 3367 3334 
Q 3622 3084 3622 2631 
Q 3622 2519 3608 2391 
Q 3594 2263 3566 2113 
z
" transform="scale(0.015625)"/>
     <path id="DejaVuSans-Oblique-20" transform="scale(0.015625)"/>
     <path id="DejaVuSans-Oblique-72" d="M 2853 2969 
Q 2766 3016 2653 3041 
Q 2541 3066 2413 3066 
Q 1953 3066 1609 2717 
Q 1266 2369 1153 1784 
L 800 0 
L 225 0 
L 909 3500 
L 1484 3500 
L 1375 2956 
Q 1603 3259 1920 3421 
Q 2238 3584 2597 3584 
Q 2691 3584 2781 3573 
Q 2872 3563 2963 3538 
L 2853 2969 
z
" transform="scale(0.015625)"/>
     <path id="DejaVuSans-Oblique-6c" d="M 1172 4863 
L 1747 4863 
L 800 0 
L 225 0 
L 1172 4863 
z
" transform="scale(0.015625)"/>
     <path id="DejaVuSans-Oblique-75" d="M 428 1388 
L 838 3500 
L 1416 3500 
L 1006 1409 
Q 975 1256 961 1147 
Q 947 1038 947 966 
Q 947 700 1109 554 
Q 1272 409 1569 409 
Q 2031 409 2368 721 
Q 2706 1034 2809 1563 
L 3194 3500 
L 3769 3500 
L 3091 0 
L 2516 0 
L 2631 550 
Q 2388 244 2052 76 
Q 1716 -91 1338 -91 
Q 878 -91 622 161 
Q 366 413 366 863 
Q 366 956 381 1097 
Q 397 1238 428 1388 
z
" transform="scale(0.015625)"/>
     <path id="DejaVuSans-Oblique-61" d="M 3438 1997 
L 3047 0 
L 2472 0 
L 2578 531 
Q 2325 219 2001 64 
Q 1678 -91 1281 -91 
Q 834 -91 548 182 
Q 263 456 263 884 
Q 263 1497 752 1853 
Q 1241 2209 2100 2209 
L 2900 2209 
L 2931 2363 
Q 2938 2388 2941 2417 
Q 2944 2447 2944 2509 
Q 2944 2788 2717 2942 
Q 2491 3097 2081 3097 
Q 1800 3097 1504 3025 
Q 1209 2953 897 2809 
L 997 3341 
Q 1322 3463 1633 3523 
Q 1944 3584 2234 3584 
Q 2853 3584 3176 3315 
Q 3500 3047 3500 2534 
Q 3500 2431 3484 2292 
Q 3469 2153 3438 1997 
z
M 2816 1759 
L 2241 1759 
Q 1534 1759 1195 1570 
Q 856 1381 856 984 
Q 856 709 1029 553 
Q 1203 397 1509 397 
Q 1978 397 2328 733 
Q 2678 1069 2791 1631 
L 2816 1759 
z
" transform="scale(0.015625)"/>
     <path id="DejaVuSans-Oblique-76" d="M 459 3500 
L 1069 3500 
L 1581 525 
L 3256 3500 
L 3866 3500 
L 1875 0 
L 1100 0 
L 459 3500 
z
" transform="scale(0.015625)"/>
     <path id="DejaVuSans-Oblique-79" d="M 1588 -325 
Q 1188 -997 936 -1164 
Q 684 -1331 294 -1331 
L -159 -1331 
L -63 -850 
L 269 -850 
Q 509 -850 678 -719 
Q 847 -588 1056 -206 
L 1234 128 
L 459 3500 
L 1069 3500 
L 1650 819 
L 3256 3500 
L 3859 3500 
L 1588 -325 
z
" transform="scale(0.015625)"/>
     <path id="DejaVuSans-Oblique-3a" d="M 978 3309 
L 1638 3309 
L 1484 2516 
L 825 2516 
L 978 3309 
z
M 488 794 
L 1147 794 
L 991 0 
L 331 0 
L 488 794 
z
" transform="scale(0.015625)"/>
     <path id="DejaVuSans-Oblique-64" d="M 2675 525 
Q 2444 222 2128 65 
Q 1813 -91 1428 -91 
Q 903 -91 598 267 
Q 294 625 294 1247 
Q 294 1766 478 2236 
Q 663 2706 1013 3078 
Q 1244 3325 1534 3454 
Q 1825 3584 2144 3584 
Q 2481 3584 2739 3421 
Q 2997 3259 3138 2956 
L 3513 4863 
L 4091 4863 
L 3144 0 
L 2566 0 
L 2675 525 
z
M 891 1350 
Q 891 897 1095 644 
Q 1300 391 1663 391 
Q 1931 391 2161 520 
Q 2391 650 2566 903 
Q 2750 1166 2856 1509 
Q 2963 1853 2963 2188 
Q 2963 2622 2758 2865 
Q 2553 3109 2194 3109 
Q 1922 3109 1687 2981 
Q 1453 2853 1288 2613 
Q 1106 2353 998 2009 
Q 891 1666 891 1350 
z
" transform="scale(0.015625)"/>
     <path id="DejaVuSans-Oblique-30" d="M 2444 4750 
Q 3078 4750 3414 4328 
Q 3750 3906 3750 3116 
Q 3750 2516 3592 1923 
Q 3434 1331 3150 863 
Q 2859 394 2467 151 
Q 2075 -91 1600 -91 
Q 988 -91 653 334 
Q 319 759 319 1544 
Q 319 2138 480 2733 
Q 641 3328 928 3794 
Q 1216 4263 1602 4506 
Q 1988 4750 2444 4750 
z
M 2406 4250 
Q 2169 4250 1955 4123 
Q 1741 3997 1569 3750 
Q 1281 3338 1111 2720 
Q 941 2103 941 1453 
Q 941 938 1123 673 
Q 1306 409 1663 409 
Q 1913 409 2125 536 
Q 2338 663 2509 909 
Q 2794 1319 2961 1936 
Q 3128 2553 3128 3206 
Q 3128 3722 2945 3986 
Q 2763 4250 2406 4250 
z
" transform="scale(0.015625)"/>
     <path id="DejaVuSans-Oblique-2e" d="M 525 794 
L 1184 794 
L 1031 0 
L 372 0 
L 525 794 
z
" transform="scale(0.015625)"/>
     <path id="DejaVuSans-Oblique-38" d="M 2847 1416 
Q 2847 1769 2600 1992 
Q 2353 2216 1953 2216 
Q 1466 2216 1148 1923 
Q 831 1631 831 1184 
Q 831 828 1073 618 
Q 1316 409 1728 409 
Q 2219 409 2533 693 
Q 2847 978 2847 1416 
z
M 3169 3591 
Q 3169 3888 2950 4069 
Q 2731 4250 2369 4250 
Q 1941 4250 1664 4009 
Q 1388 3769 1388 3406 
Q 1388 3094 1605 2903 
Q 1822 2713 2181 2713 
Q 2613 2713 2891 2961 
Q 3169 3209 3169 3591 
z
M 2741 2456 
Q 3094 2322 3281 2050 
Q 3469 1778 3469 1394 
Q 3469 747 2969 328 
Q 2469 -91 1678 -91 
Q 1006 -91 609 239 
Q 213 569 213 1119 
Q 213 1619 553 2008 
Q 894 2397 1441 2503 
Q 1113 2616 941 2852 
Q 769 3088 769 3425 
Q 769 3991 1239 4370 
Q 1709 4750 2431 4750 
Q 3034 4750 3414 4442 
Q 3794 4134 3794 3659 
Q 3794 3247 3511 2923 
Q 3228 2600 2741 2456 
z
" transform="scale(0.015625)"/>
     <path id="DejaVuSans-Oblique-37" d="M 819 4666 
L 4013 4666 
L 3956 4397 
L 1288 0 
L 594 0 
L 3116 4134 
L 716 4134 
L 819 4666 
z
" transform="scale(0.015625)"/>
     <path id="DejaVuSans-Oblique-d7" d="M 4488 3438 
L 3059 2003 
L 4488 575 
L 4116 197 
L 2681 1631 
L 1247 197 
L 878 575 
L 2303 2003 
L 878 3438 
L 1247 3816 
L 2681 2381 
L 4116 3816 
L 4488 3438 
z
" transform="scale(0.015625)"/>
     <path id="DejaVuSans-Oblique-31" d="M 416 531 
L 1447 531 
L 2144 4122 
L 978 3897 
L 1088 4441 
L 2247 4666 
L 2881 4666 
L 2075 531 
L 3103 531 
L 3003 0 
L 313 0 
L 416 531 
z
" transform="scale(0.015625)"/>
     <path id="DejaVuSans-Oblique-3d" d="M 678 2906 
L 4684 2906 
L 4684 2381 
L 678 2381 
L 678 2906 
z
M 678 1631 
L 4684 1631 
L 4684 1100 
L 678 1100 
L 678 1631 
z
" transform="scale(0.015625)"/>
     <path id="DejaVuSans-Oblique-36" d="M 2938 1728 
Q 2938 2125 2734 2354 
Q 2531 2584 2181 2584 
Q 1697 2584 1367 2211 
Q 1038 1838 1038 1288 
Q 1038 875 1239 642 
Q 1441 409 1797 409 
Q 2284 409 2611 792 
Q 2938 1175 2938 1728 
z
M 3788 4556 
L 3681 3981 
Q 3500 4100 3265 4162 
Q 3031 4225 2766 4225 
Q 2119 4225 1726 3819 
Q 1334 3413 1141 2547 
Q 1369 2813 1670 2948 
Q 1972 3084 2322 3084 
Q 2894 3084 3233 2754 
Q 3572 2425 3572 1869 
Q 3572 1413 3405 1020 
Q 3238 628 2919 331 
Q 2700 128 2409 18 
Q 2119 -91 1791 -91 
Q 1147 -91 775 318 
Q 403 728 403 1441 
Q 403 2103 573 2717 
Q 744 3331 1050 3781 
Q 1372 4256 1830 4503 
Q 2288 4750 2841 4750 
Q 3084 4750 3321 4701 
Q 3559 4653 3788 4556 
z
" transform="scale(0.015625)"/>
     <path id="DejaVuSans-Oblique-32" d="M 2950 2253 
L 934 525 
L 3163 525 
L 3053 0 
L 25 0 
L 128 531 
L 2234 2338 
Q 2656 2703 2832 2979 
Q 3009 3256 3009 3547 
Q 3009 3850 2796 4040 
Q 2584 4231 2241 4231 
Q 1944 4231 1581 4125 
Q 1219 4019 806 3816 
L 922 4441 
Q 1309 4594 1662 4672 
Q 2016 4750 2316 4750 
Q 2928 4750 3301 4425 
Q 3675 4100 3675 3572 
Q 3675 3216 3497 2892 
Q 3319 2569 2950 2253 
z
" transform="scale(0.015625)"/>
     <path id="DejaVuSans-Oblique-39" d="M 281 103 
L 397 678 
Q 578 559 809 496 
Q 1041 434 1306 434 
Q 1953 434 2348 843 
Q 2744 1253 2938 2119 
Q 2706 1853 2401 1714 
Q 2097 1575 1747 1575 
Q 1178 1575 842 1904 
Q 506 2234 506 2791 
Q 506 3247 672 3639 
Q 838 4031 1159 4325 
Q 1378 4531 1665 4640 
Q 1953 4750 2278 4750 
Q 2925 4750 3300 4339 
Q 3675 3928 3675 3219 
Q 3675 2559 3501 1943 
Q 3328 1328 3022 878 
Q 2697 403 2240 156 
Q 1784 -91 1228 -91 
Q 988 -91 748 -42 
Q 509 6 281 103 
z
M 1131 2938 
Q 1131 2541 1337 2308 
Q 1544 2075 1894 2075 
Q 2378 2075 2706 2447 
Q 3034 2819 3034 3372 
Q 3034 3784 2831 4017 
Q 2628 4250 2272 4250 
Q 1788 4250 1459 3870 
Q 1131 3491 1131 2938 
z
" transform="scale(0.015625)"/>
     <path id="DejaVuSans-Oblique-28" d="M 2731 4856 
Q 1903 3822 1495 2892 
Q 1088 1963 1088 1100 
Q 1088 606 1206 120 
Q 1325 -366 1563 -844 
L 1063 -844 
Q 775 -306 634 201 
Q 494 709 494 1197 
Q 494 2125 923 3036 
Q 1353 3947 2222 4856 
L 2731 4856 
z
" transform="scale(0.015625)"/>
     <path id="DejaVuSans-Oblique-2212" d="M 678 2272 
L 4684 2272 
L 4684 1741 
L 678 1741 
L 678 2272 
z
" transform="scale(0.015625)"/>
     <path id="DejaVuSans-Oblique-33" d="M 1013 4550 
Q 1356 4650 1679 4700 
Q 2003 4750 2316 4750 
Q 2934 4750 3296 4475 
Q 3659 4200 3659 3738 
Q 3659 3284 3373 2959 
Q 3088 2634 2584 2516 
Q 2978 2403 3162 2165 
Q 3347 1928 3347 1538 
Q 3347 1163 3167 834 
Q 2988 506 2650 269 
Q 2394 88 2037 -1 
Q 1681 -91 1216 -91 
Q 922 -91 622 -33 
Q 322 25 13 141 
L 128 738 
Q 422 575 720 495 
Q 1019 416 1331 416 
Q 1947 416 2330 733 
Q 2713 1050 2713 1556 
Q 2713 1881 2469 2057 
Q 2225 2234 1772 2234 
L 1228 2234 
L 1325 2747 
L 1900 2747 
Q 2419 2747 2717 2984 
Q 3016 3222 3016 3628 
Q 3016 3922 2797 4083 
Q 2578 4244 2181 4244 
Q 1881 4244 1567 4180 
Q 1253 4116 916 3988 
L 1013 4550 
z
" transform="scale(0.015625)"/>
     <path id="DejaVuSans-Oblique-66" d="M 3059 4863 
L 2969 4384 
L 2419 4384 
Q 2106 4384 1964 4261 
Q 1822 4138 1753 3809 
L 1691 3500 
L 2638 3500 
L 2553 3053 
L 1606 3053 
L 1013 0 
L 434 0 
L 1031 3053 
L 481 3053 
L 563 3500 
L 1113 3500 
L 1159 3744 
Q 1278 4363 1576 4613 
Q 1875 4863 2516 4863 
L 3059 4863 
z
" transform="scale(0.015625)"/>
     <path id="DejaVuSans-Oblique-29" d="M -397 -844 
Q 434 191 840 1120 
Q 1247 2050 1247 2913 
Q 1247 3406 1130 3892 
Q 1013 4378 775 4856 
L 1275 4856 
Q 1563 4316 1703 3812 
Q 1844 3309 1844 2822 
Q 1844 1891 1411 973 
Q 978 56 116 -844 
L -397 -844 
z
" transform="scale(0.015625)"/>
    </defs>
    <use xlink:href="#DejaVuSans-Oblique-44"/>
    <use xlink:href="#DejaVuSans-Oblique-65" transform="translate(77.001953 0)"/>
    <use xlink:href="#DejaVuSans-Oblique-63" transform="translate(138.525391 0)"/>
    <use xlink:href="#DejaVuSans-Oblique-6f" transform="translate(193.505859 0)"/>
    <use xlink:href="#DejaVuSans-Oblique-6d" transform="translate(254.6875 0)"/>
    <use xlink:href="#DejaVuSans-Oblique-70" transform="translate(352.099609 0)"/>
    <use xlink:href="#DejaVuSans-Oblique-6f" transform="translate(415.576172 0)"/>
    <use xlink:href="#DejaVuSans-Oblique-73" transform="translate(476.757812 0)"/>
    <use xlink:href="#DejaVuSans-Oblique-69" transform="translate(528.857422 0)"/>
    <use xlink:href="#DejaVuSans-Oblique-74" transform="translate(556.640625 0)"/>
    <use xlink:href="#DejaVuSans-Oblique-69" transform="translate(595.849609 0)"/>
    <use xlink:href="#DejaVuSans-Oblique-6f" transform="translate(623.632812 0)"/>
    <use xlink:href="#DejaVuSans-Oblique-6e" transform="translate(684.814453 0)"/>
    <use xlink:href="#DejaVuSans-Oblique-20" transform="translate(748.193359 0)"/>
    <use xlink:href="#DejaVuSans-Oblique-72" transform="translate(779.980469 0)"/>
    <use xlink:href="#DejaVuSans-Oblique-65" transform="translate(821.09375 0)"/>
    <use xlink:href="#DejaVuSans-Oblique-63" transform="translate(882.617188 0)"/>
    <use xlink:href="#DejaVuSans-Oblique-6f" transform="translate(937.597656 0)"/>
    <use xlink:href="#DejaVuSans-Oblique-6e" transform="translate(998.779297 0)"/>
    <use xlink:href="#DejaVuSans-Oblique-63" transform="translate(1062.158203 0)"/>
    <use xlink:href="#DejaVuSans-Oblique-69" transform="translate(1117.138672 0)"/>
    <use xlink:href="#DejaVuSans-Oblique-6c" transform="translate(1144.921875 0)"/>
    <use xlink:href="#DejaVuSans-Oblique-65" transform="translate(1172.705078 0)"/>
    <use xlink:href="#DejaVuSans-Oblique-73" transform="translate(1234.228516 0)"/>
    <use xlink:href="#DejaVuSans-Oblique-20" transform="translate(1286.328125 0)"/>
    <use xlink:href="#DejaVuSans-Oblique-6d" transform="translate(1318.115234 0)"/>
    <use xlink:href="#DejaVuSans-Oblique-75" transform="translate(1415.527344 0)"/>
    <use xlink:href="#DejaVuSans-Oblique-6c" transform="translate(1478.90625 0)"/>
    <use xlink:href="#DejaVuSans-Oblique-74" transform="translate(1506.689453 0)"/>
    <use xlink:href="#DejaVuSans-Oblique-69" transform="translate(1545.898438 0)"/>
    <use xlink:href="#DejaVuSans-Oblique-70" transform="translate(1573.681641 0)"/>
    <use xlink:href="#DejaVuSans-Oblique-6c" transform="translate(1637.158203 0)"/>
    <use xlink:href="#DejaVuSans-Oblique-69" transform="translate(1664.941406 0)"/>
    <use xlink:href="#DejaVuSans-Oblique-63" transform="translate(1692.724609 0)"/>
    <use xlink:href="#DejaVuSans-Oblique-61" transform="translate(1747.705078 0)"/>
    <use xlink:href="#DejaVuSans-Oblique-74" transform="translate(1808.984375 0)"/>
    <use xlink:href="#DejaVuSans-Oblique-69" transform="translate(1848.193359 0)"/>
    <use xlink:href="#DejaVuSans-Oblique-76" transform="translate(1875.976562 0)"/>
    <use xlink:href="#DejaVuSans-Oblique-65" transform="translate(1935.15625 0)"/>
    <use xlink:href="#DejaVuSans-Oblique-6c" transform="translate(1996.679688 0)"/>
    <use xlink:href="#DejaVuSans-Oblique-79" transform="translate(2024.462891 0)"/>
    <use xlink:href="#DejaVuSans-Oblique-3a" transform="translate(2083.642578 0)"/>
    <use xlink:href="#DejaVuSans-Oblique-20" transform="translate(2117.333984 0)"/>
    <use xlink:href="#DejaVuSans-Oblique-64" transform="translate(2149.121094 0)"/>
    <use xlink:href="#DejaVuSans-Oblique-65" transform="translate(2212.597656 0)"/>
    <use xlink:href="#DejaVuSans-Oblique-6d" transform="translate(2274.121094 0)"/>
    <use xlink:href="#DejaVuSans-Oblique-61" transform="translate(2371.533203 0)"/>
    <use xlink:href="#DejaVuSans-Oblique-6e" transform="translate(2432.8125 0)"/>
    <use xlink:href="#DejaVuSans-Oblique-64" transform="translate(2496.191406 0)"/>
    <use xlink:href="#DejaVuSans-Oblique-20" transform="translate(2559.667969 0)"/>
    <use xlink:href="#DejaVuSans-Oblique-72" transform="translate(2591.455078 0)"/>
    <use xlink:href="#DejaVuSans-Oblique-61" transform="translate(2632.568359 0)"/>
    <use xlink:href="#DejaVuSans-Oblique-74" transform="translate(2693.847656 0)"/>
    <use xlink:href="#DejaVuSans-Oblique-69" transform="translate(2733.056641 0)"/>
    <use xlink:href="#DejaVuSans-Oblique-6f" transform="translate(2760.839844 0)"/>
    <use xlink:href="#DejaVuSans-Oblique-20" transform="translate(2822.021484 0)"/>
    <use xlink:href="#DejaVuSans-Oblique-30" transform="translate(2853.808594 0)"/>
    <use xlink:href="#DejaVuSans-Oblique-2e" transform="translate(2917.431641 0)"/>
    <use xlink:href="#DejaVuSans-Oblique-38" transform="translate(2949.21875 0)"/>
    <use xlink:href="#DejaVuSans-Oblique-37" transform="translate(3012.841797 0)"/>
    <use xlink:href="#DejaVuSans-Oblique-37" transform="translate(3076.464844 0)"/>
    <use xlink:href="#DejaVuSans-Oblique-20" transform="translate(3140.087891 0)"/>
    <use xlink:href="#DejaVuSans-Oblique-d7" transform="translate(3171.875 0)"/>
    <use xlink:href="#DejaVuSans-Oblique-20" transform="translate(3255.664062 0)"/>
    <use xlink:href="#DejaVuSans-Oblique-79" transform="translate(3287.451172 0)"/>
    <use xlink:href="#DejaVuSans-Oblique-69" transform="translate(3346.630859 0)"/>
    <use xlink:href="#DejaVuSans-Oblique-65" transform="translate(3374.414062 0)"/>
    <use xlink:href="#DejaVuSans-Oblique-6c" transform="translate(3435.9375 0)"/>
    <use xlink:href="#DejaVuSans-Oblique-64" transform="translate(3463.720703 0)"/>
    <use xlink:href="#DejaVuSans-Oblique-20" transform="translate(3527.197266 0)"/>
    <use xlink:href="#DejaVuSans-Oblique-72" transform="translate(3558.984375 0)"/>
    <use xlink:href="#DejaVuSans-Oblique-61" transform="translate(3600.097656 0)"/>
    <use xlink:href="#DejaVuSans-Oblique-74" transform="translate(3661.376953 0)"/>
    <use xlink:href="#DejaVuSans-Oblique-69" transform="translate(3700.585938 0)"/>
    <use xlink:href="#DejaVuSans-Oblique-6f" transform="translate(3728.369141 0)"/>
    <use xlink:href="#DejaVuSans-Oblique-20" transform="translate(3789.550781 0)"/>
    <use xlink:href="#DejaVuSans-Oblique-30" transform="translate(3821.337891 0)"/>
    <use xlink:href="#DejaVuSans-Oblique-2e" transform="translate(3884.960938 0)"/>
    <use xlink:href="#DejaVuSans-Oblique-37" transform="translate(3916.748047 0)"/>
    <use xlink:href="#DejaVuSans-Oblique-31" transform="translate(3980.371094 0)"/>
    <use xlink:href="#DejaVuSans-Oblique-37" transform="translate(4043.994141 0)"/>
    <use xlink:href="#DejaVuSans-Oblique-20" transform="translate(4107.617188 0)"/>
    <use xlink:href="#DejaVuSans-Oblique-3d" transform="translate(4139.404297 0)"/>
    <use xlink:href="#DejaVuSans-Oblique-20" transform="translate(4223.193359 0)"/>
    <use xlink:href="#DejaVuSans-Oblique-30" transform="translate(4254.980469 0)"/>
    <use xlink:href="#DejaVuSans-Oblique-2e" transform="translate(4318.603516 0)"/>
    <use xlink:href="#DejaVuSans-Oblique-36" transform="translate(4350.390625 0)"/>
    <use xlink:href="#DejaVuSans-Oblique-32" transform="translate(4414.013672 0)"/>
    <use xlink:href="#DejaVuSans-Oblique-39" transform="translate(4477.636719 0)"/>
    <use xlink:href="#DejaVuSans-Oblique-20" transform="translate(4541.259766 0)"/>
    <use xlink:href="#DejaVuSans-Oblique-20" transform="translate(4573.046875 0)"/>
    <use xlink:href="#DejaVuSans-Oblique-28" transform="translate(4604.833984 0)"/>
    <use xlink:href="#DejaVuSans-Oblique-3d" transform="translate(4643.847656 0)"/>
    <use xlink:href="#DejaVuSans-Oblique-20" transform="translate(4727.636719 0)"/>
    <use xlink:href="#DejaVuSans-Oblique-31" transform="translate(4759.423828 0)"/>
    <use xlink:href="#DejaVuSans-Oblique-20" transform="translate(4823.046875 0)"/>
    <use xlink:href="#DejaVuSans-Oblique-2212" transform="translate(4854.833984 0)"/>
    <use xlink:href="#DejaVuSans-Oblique-20" transform="translate(4938.623047 0)"/>
    <use xlink:href="#DejaVuSans-Oblique-30" transform="translate(4970.410156 0)"/>
    <use xlink:href="#DejaVuSans-Oblique-2e" transform="translate(5034.033203 0)"/>
    <use xlink:href="#DejaVuSans-Oblique-33" transform="translate(5065.820312 0)"/>
    <use xlink:href="#DejaVuSans-Oblique-37" transform="translate(5129.443359 0)"/>
    <use xlink:href="#DejaVuSans-Oblique-31" transform="translate(5193.066406 0)"/>
    <use xlink:href="#DejaVuSans-Oblique-20" transform="translate(5256.689453 0)"/>
    <use xlink:href="#DejaVuSans-Oblique-72" transform="translate(5288.476562 0)"/>
    <use xlink:href="#DejaVuSans-Oblique-65" transform="translate(5329.589844 0)"/>
    <use xlink:href="#DejaVuSans-Oblique-76" transform="translate(5391.113281 0)"/>
    <use xlink:href="#DejaVuSans-Oblique-65" transform="translate(5450.292969 0)"/>
    <use xlink:href="#DejaVuSans-Oblique-6e" transform="translate(5511.816406 0)"/>
    <use xlink:href="#DejaVuSans-Oblique-75" transform="translate(5575.195312 0)"/>
    <use xlink:href="#DejaVuSans-Oblique-65" transform="translate(5638.574219 0)"/>
    <use xlink:href="#DejaVuSans-Oblique-20" transform="translate(5700.097656 0)"/>
    <use xlink:href="#DejaVuSans-Oblique-64" transform="translate(5731.884766 0)"/>
    <use xlink:href="#DejaVuSans-Oblique-72" transform="translate(5795.361328 0)"/>
    <use xlink:href="#DejaVuSans-Oblique-69" transform="translate(5836.474609 0)"/>
    <use xlink:href="#DejaVuSans-Oblique-66" transform="translate(5864.257812 0)"/>
    <use xlink:href="#DejaVuSans-Oblique-74" transform="translate(5899.462891 0)"/>
    <use xlink:href="#DejaVuSans-Oblique-29" transform="translate(5938.671875 0)"/>
   </g>
  </g>
 </g>
 <defs>
  <clipPath id="pfc7b1c744d">
   <rect x="53.328125" y="18.12024" width="631.871395" height="362.123582"/>
  </clipPath>
 </defs>
</svg>
